<?xml version="1.0" encoding="UTF-8"?>
<svg width="22px" height="20px" viewBox="0 0 22 20" version="1.1" xmlns="http://www.w3.org/2000/svg" xmlns:xlink="http://www.w3.org/1999/xlink">
    <title>groupe</title>
    <g id="Welcome" stroke="none" stroke-width="1" fill="none" fill-rule="evenodd">
        <g id="GuideLine" transform="translate(-703.000000, -280.000000)" fill="#80BC00" fill-rule="nonzero">
            <g id="groupe" transform="translate(704.000000, 280.000000)">
                <path d="M10.5555556,6 L10.5555556,6 C8.89855556,6 7.55555556,4.657 7.55555556,3 L7.55555556,3 C7.55555556,1.343 8.89855556,0 10.5555556,0 L10.5555556,0 C12.2125556,0 13.5555556,1.343 13.5555556,3 L13.5555556,3 C13.5555556,4.657 12.2125556,6 10.5555556,6 Z" id="Path"></path>
                <path d="M3.55555556,15.6428571 L3.55555556,9.35714286 C3.55555556,8.46928571 3.94655556,7.65842857 4.58155556,7 L1.55555556,7 C0.450555556,7 -0.444444444,7.70321429 -0.444444444,8.57142857 L-0.444444444,13.2857143 L1.55555556,13.2857143 L1.55555556,17.2142857 C1.55555556,17.648 2.00355556,18 2.55555556,18 L4.55555556,18 C5.10755556,18 5.55555556,17.648 5.55555556,17.2142857 L5.55555556,15.6428571 L3.55555556,15.6428571 Z" id="Path"></path>
                <path d="M12.2222222,20 L8.88888889,20 C8.42888889,20 8.05555556,19.636 8.05555556,19.1875 L8.05555556,14.3125 L5.55555556,14.3125 L5.55555556,9.4375 C5.55555556,8.0911875 6.67472222,7 8.05555556,7 L13.0555556,7 C14.4363889,7 15.5555556,8.0911875 15.5555556,9.4375 L15.5555556,14.3125 L13.0555556,14.3125 L13.0555556,19.1875 C13.0555556,19.636 12.6822222,20 12.2222222,20 Z" id="Path"></path>
                <path d="M4.05555556,5 L4.05555556,5 C3.22680556,5 2.55555556,4.32875 2.55555556,3.5 L2.55555556,3.5 C2.55555556,2.67125 3.22680556,2 4.05555556,2 L4.05555556,2 C4.88430556,2 5.55555556,2.67125 5.55555556,3.5 L5.55555556,3.5 C5.55555556,4.32875 4.88430556,5 4.05555556,5 Z" id="Path"></path>
                <path d="M16.5555556,15.6428571 L16.5555556,9.35714286 C16.5555556,8.46928571 16.1645556,7.65842857 15.5295556,7 L18.5555556,7 C19.6605556,7 20.5555556,7.70321429 20.5555556,8.57142857 L20.5555556,13.2857143 L18.5555556,13.2857143 L18.5555556,17.2142857 C18.5555556,17.648 18.1075556,18 17.5555556,18 L15.5555556,18 C15.0035556,18 14.5555556,17.648 14.5555556,17.2142857 L14.5555556,15.6428571 L16.5555556,15.6428571 Z" id="Path"></path>
                <path d="M16.0555556,5 L16.0555556,5 C16.8843056,5 17.5555556,4.32875 17.5555556,3.5 L17.5555556,3.5 C17.5555556,2.67125 16.8843056,2 16.0555556,2 L16.0555556,2 C15.2268056,2 14.5555556,2.67125 14.5555556,3.5 L14.5555556,3.5 C14.5555556,4.32875 15.2268056,5 16.0555556,5 Z" id="Path"></path>
            </g>
        </g>
    </g>
</svg>