<?xml version="1.0" encoding="UTF-8"?>
<svg width="19px" height="19px" viewBox="0 0 19 19" version="1.1" xmlns="http://www.w3.org/2000/svg" xmlns:xlink="http://www.w3.org/1999/xlink">
    <title>search</title>
    <g id="Welcome" stroke="none" stroke-width="1" fill="none" fill-rule="evenodd">
        <g id="GuideLine" transform="translate(-912.000000, -281.000000)" fill="#000000" fill-rule="nonzero">
            <path d="M920.5,281 C925.19442,281 929,284.80558 929,289.5 C929,291.488819 928.316958,293.318105 927.172662,294.76607 L927.566055,295.151841 L930.707107,298.292893 C931.097631,298.683418 931.097631,299.316582 930.707107,299.707107 C930.346623,300.067591 929.779392,300.09532 929.387101,299.790295 L929.292893,299.707107 L926.16005,296.57417 L925.757045,296.179785 C924.310507,297.319792 922.484689,298 920.5,298 C915.80558,298 912,294.19442 912,289.5 C912,284.80558 915.80558,281 920.5,281 Z M920.5,283 C916.910149,283 914,285.910149 914,289.5 C914,293.089851 916.910149,296 920.5,296 C924.089851,296 927,293.089851 927,289.5 C927,285.910149 924.089851,283 920.5,283 Z" id="search"></path>
        </g>
    </g>
</svg>